<?xml version="1.0" encoding="UTF-8" standalone="no"?>
<svg
   xmlns:dc="http://purl.org/dc/elements/1.1/"
   xmlns:cc="http://creativecommons.org/ns#"
   xmlns:rdf="http://www.w3.org/1999/02/22-rdf-syntax-ns#"
   xmlns:svg="http://www.w3.org/2000/svg"
   xmlns="http://www.w3.org/2000/svg"
   xmlns:sodipodi="http://sodipodi.sourceforge.net/DTD/sodipodi-0.dtd"
   xmlns:inkscape="http://www.inkscape.org/namespaces/inkscape"
   version="1.1"
   id="Layer_1"
   x="0px"
   y="0px"
   viewBox="0 0 1752.5 201.6"
   xml:space="preserve"
   sodipodi:docname="National Union Party logo.svg"
   width="1752.5"
   height="201.60001"
   inkscape:version="1.0.1 (c497b03c, 2020-09-10)"><metadata
   id="metadata71"><rdf:RDF><cc:Work
       rdf:about=""><dc:format>image/svg+xml</dc:format><dc:type
         rdf:resource="http://purl.org/dc/dcmitype/StillImage" /><dc:title></dc:title></cc:Work></rdf:RDF></metadata><defs
   id="defs69">
	
	
	
	
	
	
	
	
	
	
	
	
</defs><sodipodi:namedview
   pagecolor="#ffffff"
   bordercolor="#666666"
   borderopacity="1"
   objecttolerance="10"
   gridtolerance="10"
   guidetolerance="10"
   inkscape:pageopacity="0"
   inkscape:pageshadow="2"
   inkscape:window-width="1280"
   inkscape:window-height="755"
   id="namedview67"
   showgrid="false"
   inkscape:zoom="0.42681883"
   inkscape:cx="994.56718"
   inkscape:cy="216.56537"
   inkscape:window-x="0"
   inkscape:window-y="303"
   inkscape:window-maximized="1"
   inkscape:current-layer="Layer_1" />
<style
   type="text/css"
   id="style10">
	.st0{fill:#00BBDF;}
	.st1{fill:#0A1B2F;}
</style>
<path
   class="st0"
   d="m 114.7,136 h -43 L 63,86.3 C 61.5,78 57.5,70.8 50.8,64.6 L 50.2,61.3 83,38.8 c 11,7.4 17.6,17.5 19.9,30.2 z"
   id="path12" /><path
   class="st0"
   d="m 280.6,198.6 h -43 L 219,93 c -1.1,-6.1 -4.9,-9.1 -11.5,-9.1 h -29.1 l 20.2,114.7 h -65.3 l -6.7,-38.2 h 22.3 l -9.8,-55.5 c -0.9,-5.2 2.7,-12.3 10.8,-21.3 -9.5,0 -15.8,-0.7 -19.1,-2.2 -4.2,-2 -9.4,-6.7 -15.7,-14.2 l -0.4,-2.3 21.9,-29.8 c 5.4,6.3 11,9.4 16.9,9.4 H 210 c 7.4,0 13.9,0.8 19.7,2.6 5.8,1.7 10.8,4.4 15,8.2 4.2,3.8 7.8,8.6 10.6,14.5 2.8,5.9 5,13.1 6.4,21.5 z"
   id="path14" /><path
   class="st0"
   d="m 399.6,121.1 c 4.7,26.7 3.2,46.1 -4.6,58.2 -8.2,12.9 -23.8,19.3 -46.7,19.3 H 298 l -6.7,-38.2 H 344 c 6.8,0 11.3,-1.4 13.4,-4.3 2.1,-2.9 2.5,-7.6 1.4,-14.1 l -7.2,-40.7 C 349.5,89.8 341.5,84 327.5,84 h -36.2 c -4.6,0 -7.9,-0.7 -9.9,-2 -1.9,-1.4 -6,-5.7 -12.4,-12.9 l -0.6,-3.5 20.8,-30.4 c 6.1,6.3 11.2,9.4 15.5,9.4 h 23 c 38.9,0 62.9,25.5 71.9,76.5 z"
   id="path16" /><path
   class="st0"
   d="m 513.3,154.7 c -3.8,16.5 -9.8,28 -18,34.5 -6.1,4.7 -17.5,8.9 -34.3,12.4 l -22,-38.5 19.8,-5.1 c 6.7,-1.4 10.8,-6.5 12.2,-15.2 l 9.3,-48.4 c 0.4,-1.4 0.5,-2.9 0.2,-4.3 -0.8,-4.3 -4,-6.4 -9.6,-6.4 h -71.1 l -7.5,-42.3 c -1.8,-10 -5,-17.2 -9.6,-21.6 L 382.4,18.3 420.9,0 c 5.8,7.5 9.1,13.1 9.8,16.9 l 4.9,27.8 h 29.8 c 15.2,0 29.1,5.8 41.7,17.3 8.3,7.6 13.5,17.3 15.5,29.1 1.5,8.8 1.2,18.1 -1,27.8 z"
   id="path18" /><path
   class="st0"
   d="m 685.3,148.6 c 2.9,16.6 1,29.5 -5.9,38.7 -6.9,9.1 -16.9,13.7 -30.1,13.7 -12.2,0 -21.9,-1 -29,-3 l -6.8,-38.7 c 5.3,2.1 11,3.1 17.1,3.1 9.5,0 13.3,-5.2 11.5,-15.5 l -8.4,-47.4 c -2.2,-12.4 -9.4,-18.7 -21.6,-18.7 -12.2,0 -21.7,4.5 -28,13.6 l 18.4,104.3 h -43 l -16.8,-95 C 540.4,90.5 535,79.6 526.7,71.1 l -6.9,-7.1 -0.4,-2.3 32,-25.8 15.6,19 c 14.7,-7.7 29.7,-11.6 44.9,-11.6 16.1,0 29.7,3.9 40.7,11.6 12.3,8.8 20.1,22 23.2,39.5 z"
   id="path20" /><path
   class="st0"
   d="m 841.6,148.6 c 2.9,16.6 1,29.5 -5.9,38.7 -6.9,9.1 -16.9,13.7 -30.1,13.7 -12.2,0 -21.9,-1 -29,-3 l -6.8,-38.7 c 5.3,2.1 11,3.1 17.1,3.1 9.5,0 13.3,-5.2 11.5,-15.5 L 790,99.5 c -2.2,-12.4 -9.4,-18.7 -21.6,-18.7 -12.2,0 -21.7,4.5 -28,13.6 l 18.4,104.3 h -43 L 699,103.7 C 696.7,90.5 691.3,79.6 683,71.1 l -6.9,-7.1 -0.4,-2.3 32,-25.8 15.6,19 C 738,47.2 753,43.3 768.2,43.3 c 16.1,0 29.7,3.9 40.7,11.6 12.3,8.8 20.1,22 23.2,39.5 z"
   id="path22" /><path
   class="st0"
   d="m 997.6,198.6 h -43 L 936,93.4 C 934.9,87.1 931,84 924.4,84 h -58.8 c -5,0 -9,-0.8 -12,-2.5 -3.7,-2 -9,-6.7 -16.1,-14.2 L 837.1,65 859,35.2 c 5.4,6.3 11,9.4 16.9,9.4 h 47.4 c 31.4,0 49.9,16 55.6,48.1 z m -96.8,-87.9 c -1.9,4.2 -1.9,11.8 0.1,23 l 11.5,64.9 h -43.1 l -11.9,-67.4 c -1.7,-9.6 -1.3,-16.4 1.2,-20.5 -0.1,0 42.2,0 42.2,0 z"
   id="path24" /><path
   class="st1"
   d="m 1203.8,198.6 h -43 L 1142.2,93.3 c -1.1,-6.3 -5,-9.4 -11.6,-9.4 h -58.8 c -5,0 -9,-0.8 -12,-2.5 -3.7,-2 -9,-6.7 -16.1,-14.2 l -0.4,-2.3 21.9,-29.8 c 5.4,6.3 11,9.4 16.9,9.4 h 47.4 c 31.4,0 49.9,16 55.6,48.1 z M 1107,110.7 c -1.9,4.2 -1.9,11.8 0.1,23 l 11.4,64.9 h -43.1 l -11.9,-67.4 c -1.7,-9.6 -1.3,-16.4 1.2,-20.5 0,0 42.3,0 42.3,0 z"
   id="path26" /><path
   class="st1"
   d="m 1294.4,198.6 h -78.8 l -6.8,-38.5 h 35.9 l -10.9,-62 c -1.2,-7.1 -6.2,-13.4 -14.8,-19 -4.6,-3 -11.6,-5.7 -21.1,-8.1 l -0.3,-2 23,-30.6 c 2,0.5 4.4,1.4 7.2,2.6 2.8,1.2 6.2,2.7 9.9,4.5 7.6,3.5 12.7,6.4 15.4,8.6 6.7,5.6 11.2,9.8 13.4,12.4 3.9,4.8 6.5,10.8 7.8,18 z"
   id="path28" /><path
   class="st1"
   d="m 1447.3,198.6 h -43 L 1385.9,94 c -1.2,-6.7 -5,-10.1 -11.5,-10.1 h -35.9 l 20.2,114.7 h -43 l -16.8,-95 c -0.4,-2.3 4.2,-9 14,-20 -11.7,0 -22.1,-5.4 -31.3,-16.4 l -0.4,-2.3 21.9,-29.8 c 5.5,6.3 11.1,9.4 16.9,9.4 h 53.2 c 15.5,0 27.4,2.9 35.6,8.8 9.8,6.8 16.1,18.3 19,34.5 z"
   id="path30" /><path
   class="st1"
   d="m 1596.6,148.6 c 2.9,16.6 1,29.5 -5.9,38.7 -6.9,9.1 -16.9,13.7 -30.1,13.7 -12.2,0 -21.9,-1 -28.9,-3 l -6.8,-38.7 c 5.3,2.1 11,3.1 17.1,3.1 9.5,0 13.3,-5.2 11.5,-15.5 l -8.4,-47.4 c -2.2,-12.4 -9.4,-18.7 -21.6,-18.7 -12.2,0 -21.7,4.5 -28,13.6 l 18.4,104.3 h -43 l -16.8,-95 c -2.3,-13.2 -7.7,-24.1 -16,-32.6 l -6.9,-7.1 -0.4,-2.3 32,-25.8 15.6,19 c 14.7,-7.7 29.7,-11.6 44.9,-11.6 16.1,0 29.7,3.9 40.7,11.6 12.3,8.8 20.1,22 23.2,39.5 z"
   id="path32" /><path
   class="st1"
   d="m 1752.5,198.6 h -43 L 1691,93.4 c -1.1,-6.3 -5,-9.4 -11.6,-9.4 h -58.8 c -5,0 -9,-0.8 -12,-2.5 -3.7,-2 -9,-6.7 -16.1,-14.2 L 1592.1,65 1614,35.2 c 5.4,6.3 11,9.4 16.9,9.4 h 47.4 c 31.4,0 49.9,16 55.6,48.1 z m -96.8,-87.9 c -1.9,4.2 -1.9,11.8 0.1,23 l 11.4,64.9 h -43.1 l -11.9,-67.4 c -1.7,-9.6 -1.3,-16.4 1.2,-20.5 0,0 42.3,0 42.3,0 z"
   id="path34" />
<polygon
   class="st1"
   points="0,151.2 11.8,166.6 5,183 24.4,183.2 36.4,198.9 42.5,183.3 60.4,183.4 48.7,167.6 55.3,150.8 36.2,150.9 24.6,135.3 18.1,151 "
   id="polygon38" />

</svg>
